<svg xmlns="http://www.w3.org/2000/svg" viewBox="-140 -160 280 320" width="280" height="320">
    
    <g transform="translate(0 0)">
      <g transform="rotate(0 -30 -70)">
        <ellipse cx="-30" cy="-100" rx="18" ry="55" fill="#FFF5FC" stroke="#2A0B4A" stroke-width="4"></ellipse>
        <ellipse cx="-30" cy="-95" rx="8" ry="40" fill="#FFB0DD"></ellipse>
      </g>
      <g transform="rotate(0 30 -70)">
        <ellipse cx="30" cy="-100" rx="18" ry="55" fill="#FFF5FC" stroke="#2A0B4A" stroke-width="4"></ellipse>
        <ellipse cx="30" cy="-95" rx="8" ry="40" fill="#FFB0DD"></ellipse>
      </g>
      
      <ellipse cx="0" cy="60" rx="75" ry="55" fill="#FFF5FC" stroke="#2A0B4A" stroke-width="4"></ellipse>
      
      <ellipse cx="-70" cy="60" rx="18" ry="28" fill="#FFF5FC" stroke="#2A0B4A" stroke-width="4"></ellipse>
      <ellipse cx="70" cy="60" rx="18" ry="28" fill="#FFF5FC" stroke="#2A0B4A" stroke-width="4"></ellipse>
      
      <ellipse cx="0" cy="0" rx="70" ry="60" fill="#FFF5FC" stroke="#2A0B4A" stroke-width="4"></ellipse>
      
      <circle cx="-22" cy="0" r="6" fill="#2A0B4A"></circle><circle cx="22" cy="0" r="6" fill="#2A0B4A"></circle>
            <circle cx="-20" cy="-2" r="2" fill="#FFF"></circle><circle cx="24" cy="-2" r="2" fill="#FFF"></circle>
      <ellipse cx="0" cy="20" rx="4" ry="2" fill="#FF3EA5"></ellipse>
    </g>
    
    <text x="0" y="150" font-family="monospace" font-size="11" fill="#6B3FA8" text-anchor="middle" opacity="0.7">[kyomuusa_idle.gif]</text>
    <text x="0" y="135" font-family="Arial" font-size="13" font-weight="900" fill="#6B3FA8" text-anchor="middle">ぼーっと…</text>
  </svg>