<svg xmlns="http://www.w3.org/2000/svg" viewBox="-140 -160 280 320" width="280" height="320">
    
    <g transform="translate(0 -8)">
      <g transform="rotate(-20 -30 -70)">
        <ellipse cx="-30" cy="-100" rx="18" ry="55" fill="#FFF5FC" stroke="#2A0B4A" stroke-width="4"></ellipse>
        <ellipse cx="-30" cy="-95" rx="8" ry="40" fill="#FFB0DD"></ellipse>
      </g>
      <g transform="rotate(20 30 -70)">
        <ellipse cx="30" cy="-100" rx="18" ry="55" fill="#FFF5FC" stroke="#2A0B4A" stroke-width="4"></ellipse>
        <ellipse cx="30" cy="-95" rx="8" ry="40" fill="#FFB0DD"></ellipse>
      </g>
      
      <ellipse cx="0" cy="60" rx="75" ry="55" fill="#FFF5FC" stroke="#2A0B4A" stroke-width="4"></ellipse>
      
      <ellipse cx="-70" cy="60" rx="18" ry="28" fill="#FFF5FC" stroke="#2A0B4A" stroke-width="4"></ellipse>
      <ellipse cx="70" cy="60" rx="18" ry="28" fill="#FFF5FC" stroke="#2A0B4A" stroke-width="4"></ellipse>
      
      <ellipse cx="0" cy="0" rx="70" ry="60" fill="#FFF5FC" stroke="#2A0B4A" stroke-width="4"></ellipse>
      <ellipse cx="-36" cy="10" rx="10" ry="5" fill="#FF3EA5" opacity="0.6"></ellipse><ellipse cx="36" cy="10" rx="10" ry="5" fill="#FF3EA5" opacity="0.6"></ellipse>
      <path d="M-30 -6 Q-22 -16 -14 -6" stroke="#2A0B4A" stroke-width="5" fill="none" stroke-linecap="round"></path>
            <path d="M14 -6 Q22 -16 30 -6" stroke="#2A0B4A" stroke-width="5" fill="none" stroke-linecap="round"></path>
      <path d="M-14 18 Q0 34 14 18 Q0 24 -14 18 Z" fill="#FF3EA5" stroke="#2A0B4A" stroke-width="2.5"></path><path d="M-10 20 Q0 26 10 20" stroke="#FFF" stroke-width="1.5" fill="none"></path>
    </g>
    
      <g fill="#FFE600" stroke="#2A0B4A" stroke-width="2">
        <path d="M-90 -60 L-86 -48 L-74 -44 L-86 -40 L-90 -28 L-94 -40 L-106 -44 L-94 -48 Z"></path>
        <path d="M90 -70 L93 -60 L103 -57 L93 -54 L90 -44 L87 -54 L77 -57 L87 -60 Z"></path>
        <path d="M100 20 L102 28 L110 30 L102 32 L100 40 L98 32 L90 30 L98 28 Z"></path>
      </g>
      <g>
        <circle cx="-95" cy="30" r="4" fill="#FF3EA5"></circle>
        <circle cx="95" cy="60" r="5" fill="#3EE8FF"></circle>
        <circle cx="-110" cy="80" r="3" fill="#B14BFF"></circle>
        <path d="M-80 100 L-76 110 L-66 114 L-76 118 L-80 128 L-84 118 L-94 114 L-84 110 Z" fill="#FFE600" stroke="#2A0B4A" stroke-width="2"></path>
      </g>
    <text x="0" y="150" font-family="monospace" font-size="11" fill="#6B3FA8" text-anchor="middle" opacity="0.7">[kyomuusa_smile.gif]</text>
    <text x="0" y="135" font-family="Arial" font-size="13" font-weight="900" fill="#6B3FA8" text-anchor="middle">やったー!!</text>
  </svg>