<svg xmlns="http://www.w3.org/2000/svg" viewBox="-140 -160 280 320" width="280" height="320">
    
    <g transform="translate(0 -2)">
      <g transform="rotate(-8 -30 -70)">
        <ellipse cx="-30" cy="-100" rx="18" ry="55" fill="#FFF5FC" stroke="#2A0B4A" stroke-width="4"></ellipse>
        <ellipse cx="-30" cy="-95" rx="8" ry="40" fill="#FFB0DD"></ellipse>
      </g>
      <g transform="rotate(8 30 -70)">
        <ellipse cx="30" cy="-100" rx="18" ry="55" fill="#FFF5FC" stroke="#2A0B4A" stroke-width="4"></ellipse>
        <ellipse cx="30" cy="-95" rx="8" ry="40" fill="#FFB0DD"></ellipse>
      </g>
      
      <ellipse cx="0" cy="60" rx="75" ry="55" fill="#FFF5FC" stroke="#2A0B4A" stroke-width="4"></ellipse>
      
      <ellipse cx="-70" cy="60" rx="18" ry="28" fill="#FFF5FC" stroke="#2A0B4A" stroke-width="4"></ellipse>
      <ellipse cx="70" cy="60" rx="18" ry="28" fill="#FFF5FC" stroke="#2A0B4A" stroke-width="4"></ellipse>
      
      <ellipse cx="0" cy="0" rx="70" ry="60" fill="#FFF5FC" stroke="#2A0B4A" stroke-width="4"></ellipse>
      <ellipse cx="-36" cy="10" rx="10" ry="5" fill="#FF3EA5" opacity="0.6"></ellipse><ellipse cx="36" cy="10" rx="10" ry="5" fill="#FF3EA5" opacity="0.6"></ellipse>
      <circle cx="-22" cy="-2" r="6" fill="#2A0B4A"></circle><circle cx="22" cy="-2" r="6" fill="#2A0B4A"></circle>
            <circle cx="-20" cy="-4" r="2" fill="#FFF"></circle><circle cx="24" cy="-4" r="2" fill="#FFF"></circle>
      <path d="M-5 20 Q0 24 5 20" stroke="#FF3EA5" stroke-width="3" fill="none" stroke-linecap="round"></path>
    </g>
    
    <text x="0" y="150" font-family="monospace" font-size="11" fill="#6B3FA8" text-anchor="middle" opacity="0.7">[kyomuusa_interest.gif]</text>
    <text x="0" y="135" font-family="Arial" font-size="13" font-weight="900" fill="#6B3FA8" text-anchor="middle">…ん?</text>
  </svg>