<svg xmlns="http://www.w3.org/2000/svg" viewBox="0 0 390 844" width="390" height="844">
  <defs>
    <linearGradient id="rg1" x1="0" y1="0" x2="0" y2="1">
      <stop offset="0" stop-color="#FFC8F0"></stop>
      <stop offset="0.5" stop-color="#E5B8FF"></stop>
      <stop offset="1" stop-color="#B7F0FF"></stop>
    </linearGradient>
    <linearGradient id="rg2" x1="0" y1="0" x2="0" y2="1">
      <stop offset="0" stop-color="#F5A8E8"></stop>
      <stop offset="1" stop-color="#C77FE8"></stop>
    </linearGradient>
    <pattern id="dots" x="0" y="0" width="24" height="24" patternUnits="userSpaceOnUse">
      <circle cx="12" cy="12" r="2" fill="#FFE8FF" opacity="0.6"></circle>
    </pattern>
  </defs>

  
  <rect width="390" height="560" fill="url(#rg1)"></rect>
  <rect width="390" height="560" fill="url(#dots)"></rect>

  
  <rect y="560" width="390" height="284" fill="url(#rg2)"></rect>
  <g stroke="#8B3FB8" stroke-width="1.5" opacity="0.4">
    <line x1="0" y1="580" x2="390" y2="620"></line>
    <line x1="0" y1="650" x2="390" y2="700"></line>
    <line x1="0" y1="730" x2="390" y2="790"></line>
  </g>

  
  <g transform="translate(50 120)">
    <rect width="90" height="110" fill="#FFF" stroke="#6B3FA8" stroke-width="4" rx="3"></rect>
    <rect x="8" y="8" width="74" height="74" fill="#3EE8FF"></rect>
    <circle cx="45" cy="45" r="22" fill="#FFE600"></circle>
    <text x="45" y="100" font-family="Arial" font-size="10" fill="#6B3FA8" text-anchor="middle" font-weight="900">ART</text>
  </g>

  
  <g transform="translate(270 140)">
    <rect width="90" height="180" fill="#A87FD4" stroke="#6B3FA8" stroke-width="3" rx="4"></rect>
    <line x1="0" y1="60" x2="90" y2="60" stroke="#6B3FA8" stroke-width="3"></line>
    <line x1="0" y1="120" x2="90" y2="120" stroke="#6B3FA8" stroke-width="3"></line>
    <rect x="8" y="10" width="12" height="45" fill="#FF3EA5"></rect>
    <rect x="24" y="10" width="12" height="45" fill="#3EE8FF"></rect>
    <rect x="40" y="15" width="12" height="40" fill="#FFE600"></rect>
    <rect x="56" y="10" width="12" height="45" fill="#B14BFF"></rect>
    <rect x="8" y="70" width="40" height="45" fill="#FF8ACC"></rect>
    <circle cx="65" cy="92" r="15" fill="#FFE600"></circle>
    <rect x="8" y="130" width="12" height="45" fill="#3EE8FF"></rect>
    <rect x="24" y="130" width="12" height="45" fill="#B14BFF"></rect>
    <rect x="40" y="135" width="12" height="40" fill="#FF3EA5"></rect>
  </g>

  
  <g transform="translate(40 650)">
    <rect width="140" height="80" rx="10" fill="#6B3FA8" stroke="#2A0B4A" stroke-width="3"></rect>
    <circle cx="35" cy="40" r="22" fill="#2A0B4A" stroke="#FFE600" stroke-width="2"></circle>
    <circle cx="35" cy="40" r="6" fill="#FFE600"></circle>
    <circle cx="105" cy="40" r="22" fill="#2A0B4A" stroke="#FFE600" stroke-width="2"></circle>
    <circle cx="105" cy="40" r="6" fill="#FFE600"></circle>
    <rect x="55" y="20" width="30" height="14" fill="#3EE8FF"></rect>
    <rect x="55" y="42" width="30" height="6" fill="#FF3EA5"></rect>
  </g>

  
  <ellipse cx="240" cy="730" rx="100" ry="30" fill="#FF3EA5" opacity="0.55"></ellipse>
  <ellipse cx="240" cy="730" rx="70" ry="20" fill="#FFE600" opacity="0.7"></ellipse>

  
  <g transform="translate(160 60)">
    <rect width="110" height="60" fill="#B7F0FF" stroke="#6B3FA8" stroke-width="4" rx="2"></rect>
    <line x1="55" y1="0" x2="55" y2="60" stroke="#6B3FA8" stroke-width="3"></line>
    <line x1="0" y1="30" x2="110" y2="30" stroke="#6B3FA8" stroke-width="3"></line>
  </g>

  <text x="195" y="830" font-family="monospace" font-size="10" fill="#6B3FA8" text-anchor="middle" opacity="0.5">[ room_BG.png — placeholder ]</text>
</svg>